<svg xmlns="http://www.w3.org/2000/svg" viewBox="0 0 64 64"><path d="M4.3 29.52c.68 6 1.45 12.76 7.51 18.83 3.61 3.61 6.75 4.53 9.58 4.53a24.19 24.19 0 0 0 4.37-.53 25.71 25.71 0 0 1 3.17-.45 11.48 11.48 0 0 1 1.13 1.1A2.47 2.47 0 0 0 32 54a2.47 2.47 0 0 0 1.94-1 12.62 12.62 0 0 1 1.12-1.08 25.6 25.6 0 0 1 3.18.45 24.19 24.19 0 0 0 4.36.53c2.84 0 6-.92 9.58-4.53C58.25 42.28 59 35.5 59.7 29.52c.08-.71.16-1.41.25-2.09a4 4 0 0 0-4.8-4.79l-2.09.25a48.65 48.65 0 0 0-9 1.64A46.81 46.81 0 0 0 37.22 14c-.51-.64-1-1.26-1.48-1.88A4.71 4.71 0 0 0 32 10a4.71 4.71 0 0 0-3.74 2.11c-.48.62-1 1.24-1.48 1.87a47.11 47.11 0 0 0-6.87 10.57 48.75 48.75 0 0 0-9-1.64l-2.09-.25a4.25 4.25 0 0 0-3.72 1.03 4.25 4.25 0 0 0-1 3.74c.04.68.12 1.38.2 2.09Zm49-4.65 2.12-.25a2.52 2.52 0 0 1 2.07.48 2.47 2.47 0 0 1 .51 2.08c-.08.69-.17 1.4-.25 2.11-.64 5.66-1.37 12.07-6.94 17.64-4.82 4.83-8.39 4.16-12.16 3.45l-1.41-.25c.38-.27.74-.55 1.14-.82s.93-.63 1.39-1a6.52 6.52 0 0 1 1.14 1.06 1 1 0 0 0 1.59-1.22 9.85 9.85 0 0 0-1.11-1.11 14.45 14.45 0 0 0 2.42-2.66 7.06 7.06 0 0 1 1.08 1 1 1 0 1 0 1.58-1.22 8.57 8.57 0 0 0-1.66-1.52 15.15 15.15 0 0 0 1-3.09 5.23 5.23 0 0 1 3 1.86 1 1 0 0 0 1.59-1.22 7.47 7.47 0 0 0-4.08-2.56L48 36c2.53-1.35 4.69 1.37 4.78 1.48a1 1 0 1 0 1.59-1.21 7.07 7.07 0 0 0-4.1-2.54l1.48-1.48a1 1 0 0 0 0-1.41 1 1 0 0 0-1.42 0l-1.45 1.46a5.89 5.89 0 0 0-.72-2 1 1 0 1 0-1.72 1 3.07 3.07 0 0 1 .16 3.24l-.34.34a25.9 25.9 0 0 0-1.45-8.51 48.1 48.1 0 0 1 8.48-1.5Zm-24.95-9.66c.51-.64 1-1.27 1.49-1.9A3 3 0 0 1 32 12a3 3 0 0 1 2.16 1.33c.48.63 1 1.26 1.5 1.9 4 5.07 8.61 10.82 8.61 19.81 0 7.81-3.43 10.16-7.06 12.64A23.27 23.27 0 0 0 33 51.06v-3.49c1-3.25 5-2.79 5.18-2.76A1 1 0 0 0 39.3 44a1 1 0 0 0-.86-1.12A7.7 7.7 0 0 0 33 44.25v-3.06c1-3.24 5-2.78 5.18-2.76a1 1 0 0 0 1.12-.86 1 1 0 0 0-.86-1.12A7.7 7.7 0 0 0 33 37.87v-3.06c1-3.24 5-2.79 5.18-2.76a1 1 0 0 0 1.12-.86 1 1 0 0 0-.86-1.12A7.7 7.7 0 0 0 33 31.49v-3.06c1-3.24 5-2.78 5.18-2.76a1 1 0 0 0 .26-2A7.7 7.7 0 0 0 33 25.11v-2.67a1 1 0 1 0-2 0v2.67a7.73 7.73 0 0 0-5.45-1.42 1 1 0 1 0 .27 2c.17 0 4.21-.5 5.18 2.76v3.06a7.73 7.73 0 0 0-5.45-1.42 1 1 0 1 0 .27 2C26 32 30 31.55 31 34.81v3.06a7.73 7.73 0 0 0-5.45-1.42 1 1 0 1 0 .27 2c.17 0 4.21-.51 5.18 2.76v3.06a7.73 7.73 0 0 0-5.45-1.42 1 1 0 1 0 .27 2c.17 0 4.21-.51 5.18 2.76v3.49a23.62 23.62 0 0 0-4.21-3.4c-3.63-2.48-7.06-4.83-7.06-12.64 0-9.06 4.58-14.78 8.62-19.85ZM6.52 25.1a2.52 2.52 0 0 1 2.07-.48l2.12.25a48.27 48.27 0 0 1 8.48 1.53 25.9 25.9 0 0 0-1.45 8.51l-.34-.34a3.07 3.07 0 0 1 .16-3.24 1 1 0 1 0-1.72-1 5.89 5.89 0 0 0-.72 2l-1.46-1.47a1 1 0 0 0-1.42 0 1 1 0 0 0 0 1.41l1.49 1.49a7.06 7.06 0 0 0-4.11 2.53 1 1 0 0 0 1.59 1.21c.09-.12 2.24-2.84 4.78-1.48l1.68 1.68a7.47 7.47 0 0 0-4.08 2.56 1 1 0 0 0 .19 1.4 1 1 0 0 0 .6.21 1 1 0 0 0 .8-.39 5.27 5.27 0 0 1 3.05-1.86 14.56 14.56 0 0 0 1 3.09 8.23 8.23 0 0 0-1.66 1.52 1 1 0 0 0 .18 1.4 1 1 0 0 0 .61.21 1 1 0 0 0 .79-.39 7.27 7.27 0 0 1 1.07-1 14.85 14.85 0 0 0 2.43 2.66 9.85 9.85 0 0 0-1.11 1.11 1 1 0 0 0 .18 1.4 1 1 0 0 0 .61.21 1 1 0 0 0 .79-.39 6.84 6.84 0 0 1 1.15-1.06c.46.34.93.66 1.39 1s.76.55 1.14.83c-.47.07-.95.15-1.41.24-3.77.71-7.34 1.37-12.16-3.45-5.57-5.57-6.3-12-6.94-17.64-.09-.71-.17-1.42-.25-2.11a2.47 2.47 0 0 1 .48-2.15Z"/></svg>