<svg xmlns="http://www.w3.org/2000/svg" viewBox="0 0 64 64"><path d="M51,25.37a.67.67,0,0,1,.66.67.67.67,0,0,1-1.33,0A.67.67,0,0,1,51,25.37ZM7.23,38.65A3.13,3.13,0,0,1,10,36.89a3.79,3.79,0,0,1,2.63,1.51,14.3,14.3,0,0,1,3.3-8c4-4.61,11.35-6.08,21.72-4.39a3.83,3.83,0,0,0,1.15,0C34,25.1,27.26,22.56,24,15.33A1,1,0,0,1,24.48,14a12.32,12.32,0,0,1,3.2-.85,5.79,5.79,0,0,1-.2-.82,1,1,0,0,1,.39-1,9.12,9.12,0,0,1,6.73-1.21c4.3.79,8.48,4.17,12.41,10a6.85,6.85,0,0,1,2.78.15c2.05.56,3.75,2.09,5.07,4.56a9.11,9.11,0,0,1,2.65,1.7c1,.95,2.47,2.84,2,4.84-.3,1.34-1.4,2.36-3.27,3a7.31,7.31,0,0,1-2.45.38,12.5,12.5,0,0,1-2.94-.39,11.51,11.51,0,0,1-2.68,7.66,20.29,20.29,0,0,1-5.34,4.32l-.09,0a3.52,3.52,0,0,0,.17,1.11,6,6,0,0,0,1.74,1.58A4,4,0,0,1,47.17,53a1,1,0,0,1-1,1H40.86a1.15,1.15,0,0,1-.45-.11A1.06,1.06,0,0,1,40,54H15.18a1.07,1.07,0,0,1-.52-.14c-.22-.14-5.5-3.34-7.42-6.54A9.4,9.4,0,0,1,7.23,38.65ZM34.3,12.15a7.55,7.55,0,0,0-4.68.52,3.05,3.05,0,0,0,.15.35c3.93,0,9.56,1.37,15.18,7.79l0,0C41.54,15.81,37.86,12.83,34.3,12.15ZM32.81,48h3.56c.08,0,.38,0,.76,0-.18-.28-.37-.54-.55-.77a12.92,12.92,0,0,1-2-3.46A25.51,25.51,0,0,1,32.81,48ZM9,46.29c1.46,2.44,5.5,5.08,6.51,5.71H39a1.46,1.46,0,0,0-.35-.84c-.57-.63-1.77-.71-2.24-1.16H31.12c-.36.46-.69.27-.87,0a1,1,0,0,1,0-1c3.84-6.64,3.18-9.42,2.44-10.49-1.17-1.69-3.88-1.45-5-1.26-3.31.54-6.57,2.63-7.12,4.56a1,1,0,0,1-1.93-.55c.89-3.1,5.16-5.4,8.73-6,3.14-.51,5.68.25,7,2.1a5.63,5.63,0,0,1,.93,3.36,9.15,9.15,0,0,1,1.18-.82,4.54,4.54,0,0,0,1.76-1.49A1,1,0,0,1,40,39.3a6.34,6.34,0,0,1-2.49,2.28,3.74,3.74,0,0,0-1.12.84c-.23.55.24,2.06,1.8,4.07A43.23,43.23,0,0,1,41.47,52H45a1.73,1.73,0,0,0-.94-.92,7.34,7.34,0,0,1-2.8-2.41,5.75,5.75,0,0,1-.48-2.78,1,1,0,0,1,.45-.81l.65-.38a18.2,18.2,0,0,0,4.87-3.94c2.06-2.22,2.17-5.56,2.13-6.91a17.16,17.16,0,0,1-3.29-1.59,1,1,0,0,1,1.08-1.68c1.8,1.16,6.27,2.94,8.94,2,.81-.28,1.82-.79,2-1.57s-.39-1.89-1.48-3a7.43,7.43,0,0,0-2.29-1.39,1,1,0,0,1-.55-.49c-1.07-2.12-2.41-3.42-4-3.86a5.28,5.28,0,0,0-3.21.22,1,1,0,0,1-.36.78,1,1,0,0,1-1.4-.15C38.58,16,33,14.81,29.33,15a1.11,1.11,0,0,1-.26,0,12.26,12.26,0,0,0-2.77.5c5.09,9.55,17.53,9,17.66,9a1,1,0,0,1,1,.94,1,1,0,0,1-.94,1.05h-.55c-.4,0-1,0-1.77-.07-1.49,2-4.3,1.66-4.44,1.64C27.64,26.44,21,27.69,17.4,31.74c-4.86,5.54-2.18,14.69-2.15,14.78a1,1,0,0,1-.67,1.24.93.93,0,0,1-.29.05,1,1,0,0,1-.95-.71,23.62,23.62,0,0,1-.83-5.17c-1.11-2.21-2.08-3-2.62-3s-.76.48-.93.78A7.48,7.48,0,0,0,9,46.29Z" data-name="Layer 4"/></svg>